####
#
# OBJ File Generated by Meshlab
#
####
# Object cylinder.obj
#
# Vertices: 102
# Faces: 200
#
####
vn 2.951049 -2.827435 -0.958847
v 0.951057 -1.000000 -0.309017
vn 2.510310 -2.827429 -1.823846
v 0.809018 -1.000000 -0.587786
vn 1.823845 -2.827436 -2.510313
v 0.587786 -1.000000 -0.809017
vn 0.958851 -2.827431 -2.951047
v 0.309017 -1.000000 -0.951057
vn -0.000000 -2.827436 -3.102915
v 0.000000 -1.000000 -1.000000
vn -0.958853 -2.827430 -2.951046
v -0.309017 -1.000000 -0.951057
vn -1.823850 -2.827435 -2.510309
v -0.587785 -1.000000 -0.809017
vn -2.510309 -2.827435 -1.823850
v -0.809017 -1.000000 -0.587785
vn -2.951046 -2.827430 -0.958853
v -0.951057 -1.000000 -0.309017
vn -3.102915 -2.827436 0.000000
v -1.000000 -1.000000 0.000000
vn -2.951046 -2.827430 0.958853
v -0.951057 -1.000000 0.309017
vn -2.510309 -2.827435 1.823850
v -0.809017 -1.000000 0.587785
vn -1.823850 -2.827435 2.510309
v -0.587785 -1.000000 0.809017
vn -0.958853 -2.827430 2.951046
v -0.309017 -1.000000 0.951057
vn 0.000000 -2.827436 3.102915
v -0.000000 -1.000000 1.000000
vn 0.958853 -2.827430 2.951046
v 0.309017 -1.000000 0.951057
vn 1.823850 -2.827435 2.510309
v 0.587785 -1.000000 0.809017
vn 2.510309 -2.827435 1.823850
v 0.809017 -1.000000 0.587785
vn 2.951046 -2.827430 0.958853
v 0.951057 -1.000000 0.309017
vn 3.102915 -2.827436 -0.000000
v 1.000000 -1.000000 0.000000
vn 5.902099 0.000000 -1.917694
v 0.951057 -0.500000 -0.309017
vn 5.020619 0.000000 -3.647693
v 0.809018 -0.500000 -0.587786
vn 3.647691 0.000000 -5.020626
v 0.587786 -0.500000 -0.809017
vn 1.917703 0.000000 -5.902095
v 0.309017 -0.500000 -0.951057
vn 0.000000 0.000000 -6.205830
v 0.000000 -0.500000 -1.000000
vn -1.917707 0.000000 -5.902092
v -0.309017 -0.500000 -0.951057
vn -3.647700 0.000000 -5.020619
v -0.587785 -0.500000 -0.809017
vn -5.020618 0.000000 -3.647700
v -0.809017 -0.500000 -0.587785
vn -5.902092 0.000000 -1.917707
v -0.951057 -0.500000 -0.309017
vn -6.205830 0.000000 0.000000
v -1.000000 -0.500000 0.000000
vn -5.902092 0.000000 1.917707
v -0.951057 -0.500000 0.309017
vn -5.020619 0.000000 3.647700
v -0.809017 -0.500000 0.587785
vn -3.647700 0.000000 5.020618
v -0.587785 -0.500000 0.809017
vn -1.917707 0.000000 5.902092
v -0.309017 -0.500000 0.951057
vn 0.000000 0.000000 6.205830
v -0.000000 -0.500000 1.000000
vn 1.917707 0.000000 5.902092
v 0.309017 -0.500000 0.951057
vn 3.647700 0.000000 5.020619
v 0.587785 -0.500000 0.809017
vn 5.020618 0.000000 3.647700
v 0.809017 -0.500000 0.587785
vn 5.902092 0.000000 1.917707
v 0.951057 -0.500000 0.309017
vn 6.205830 0.000000 0.000000
v 1.000000 -0.500000 0.000000
vn 5.902099 0.000000 -1.917694
v 0.951057 0.000000 -0.309017
vn 5.020619 0.000000 -3.647693
v 0.809018 0.000000 -0.587786
vn 3.647691 0.000000 -5.020626
v 0.587786 0.000000 -0.809017
vn 1.917703 0.000000 -5.902095
v 0.309017 0.000000 -0.951057
vn 0.000000 0.000000 -6.205830
v 0.000000 0.000000 -1.000000
vn -1.917707 0.000000 -5.902092
v -0.309017 0.000000 -0.951057
vn -3.647700 0.000000 -5.020619
v -0.587785 0.000000 -0.809017
vn -5.020618 0.000000 -3.647700
v -0.809017 0.000000 -0.587785
vn -5.902092 0.000000 -1.917707
v -0.951057 0.000000 -0.309017
vn -6.205830 0.000000 0.000000
v -1.000000 0.000000 0.000000
vn -5.902092 0.000000 1.917707
v -0.951057 0.000000 0.309017
vn -5.020619 0.000000 3.647700
v -0.809017 0.000000 0.587785
vn -3.647700 0.000000 5.020618
v -0.587785 0.000000 0.809017
vn -1.917707 0.000000 5.902092
v -0.309017 0.000000 0.951057
vn 0.000000 0.000000 6.205830
v -0.000000 0.000000 1.000000
vn 1.917707 0.000000 5.902092
v 0.309017 0.000000 0.951057
vn 3.647700 0.000000 5.020619
v 0.587785 0.000000 0.809017
vn 5.020618 0.000000 3.647700
v 0.809017 0.000000 0.587785
vn 5.902092 0.000000 1.917707
v 0.951057 0.000000 0.309017
vn 6.205830 0.000000 0.000000
v 1.000000 0.000000 0.000000
vn 5.902099 0.000000 -1.917694
v 0.951057 0.500000 -0.309017
vn 5.020619 0.000000 -3.647693
v 0.809018 0.500000 -0.587786
vn 3.647691 0.000000 -5.020626
v 0.587786 0.500000 -0.809017
vn 1.917703 0.000000 -5.902095
v 0.309017 0.500000 -0.951057
vn 0.000000 0.000000 -6.205830
v 0.000000 0.500000 -1.000000
vn -1.917707 0.000000 -5.902092
v -0.309017 0.500000 -0.951057
vn -3.647700 0.000000 -5.020619
v -0.587785 0.500000 -0.809017
vn -5.020618 0.000000 -3.647700
v -0.809017 0.500000 -0.587785
vn -5.902092 0.000000 -1.917707
v -0.951057 0.500000 -0.309017
vn -6.205830 0.000000 0.000000
v -1.000000 0.500000 0.000000
vn -5.902092 0.000000 1.917707
v -0.951057 0.500000 0.309017
vn -5.020619 0.000000 3.647700
v -0.809017 0.500000 0.587785
vn -3.647700 0.000000 5.020618
v -0.587785 0.500000 0.809017
vn -1.917707 0.000000 5.902092
v -0.309017 0.500000 0.951057
vn 0.000000 0.000000 6.205830
v -0.000000 0.500000 1.000000
vn 1.917707 0.000000 5.902092
v 0.309017 0.500000 0.951057
vn 3.647700 0.000000 5.020619
v 0.587785 0.500000 0.809017
vn 5.020618 0.000000 3.647700
v 0.809017 0.500000 0.587785
vn 5.902092 0.000000 1.917707
v 0.951057 0.500000 0.309017
vn 6.205830 0.000000 0.000000
v 1.000000 0.500000 0.000000
vn 2.951049 2.827435 -0.958847
v 0.951057 1.000000 -0.309017
vn 2.510310 2.827429 -1.823846
v 0.809018 1.000000 -0.587786
vn 1.823845 2.827436 -2.510313
v 0.587786 1.000000 -0.809017
vn 0.958851 2.827431 -2.951047
v 0.309017 1.000000 -0.951057
vn 0.000000 2.827436 -3.102915
v 0.000000 1.000000 -1.000000
vn -0.958853 2.827430 -2.951046
v -0.309017 1.000000 -0.951057
vn -1.823850 2.827435 -2.510309
v -0.587785 1.000000 -0.809017
vn -2.510309 2.827435 -1.823850
v -0.809017 1.000000 -0.587785
vn -2.951046 2.827430 -0.958853
v -0.951057 1.000000 -0.309017
vn -3.102915 2.827436 -0.000000
v -1.000000 1.000000 0.000000
vn -2.951046 2.827430 0.958853
v -0.951057 1.000000 0.309017
vn -2.510309 2.827435 1.823850
v -0.809017 1.000000 0.587785
vn -1.823850 2.827435 2.510309
v -0.587785 1.000000 0.809017
vn -0.958853 2.827430 2.951046
v -0.309017 1.000000 0.951057
vn -0.000000 2.827436 3.102915
v -0.000000 1.000000 1.000000
vn 0.958853 2.827430 2.951046
v 0.309017 1.000000 0.951057
vn 1.823850 2.827435 2.510309
v 0.587785 1.000000 0.809017
vn 2.510309 2.827435 1.823850
v 0.809017 1.000000 0.587785
vn 2.951046 2.827430 0.958853
v 0.951057 1.000000 0.309017
vn 3.102915 2.827436 0.000000
v 1.000000 1.000000 0.000000
vn 0.000000 -6.283187 0.000000
v 0.000000 -1.000000 0.000000
vn 0.000000 6.283187 0.000000
v 0.000000 1.000000 0.000000
# 102 vertices, 0 vertices normals

f 1//1 2//2 21//21
f 21//21 2//2 22//22
f 2//2 3//3 22//22
f 22//22 3//3 23//23
f 3//3 4//4 23//23
f 23//23 4//4 24//24
f 4//4 5//5 24//24
f 24//24 5//5 25//25
f 5//5 6//6 25//25
f 25//25 6//6 26//26
f 6//6 7//7 26//26
f 26//26 7//7 27//27
f 7//7 8//8 27//27
f 27//27 8//8 28//28
f 8//8 9//9 28//28
f 28//28 9//9 29//29
f 9//9 10//10 29//29
f 29//29 10//10 30//30
f 10//10 11//11 30//30
f 30//30 11//11 31//31
f 11//11 12//12 31//31
f 31//31 12//12 32//32
f 12//12 13//13 32//32
f 32//32 13//13 33//33
f 13//13 14//14 33//33
f 33//33 14//14 34//34
f 14//14 15//15 34//34
f 34//34 15//15 35//35
f 15//15 16//16 35//35
f 35//35 16//16 36//36
f 16//16 17//17 36//36
f 36//36 17//17 37//37
f 17//17 18//18 37//37
f 37//37 18//18 38//38
f 18//18 19//19 38//38
f 38//38 19//19 39//39
f 19//19 20//20 39//39
f 39//39 20//20 40//40
f 20//20 1//1 40//40
f 40//40 1//1 21//21
f 21//21 22//22 41//41
f 41//41 22//22 42//42
f 22//22 23//23 42//42
f 42//42 23//23 43//43
f 23//23 24//24 43//43
f 43//43 24//24 44//44
f 24//24 25//25 44//44
f 44//44 25//25 45//45
f 25//25 26//26 45//45
f 45//45 26//26 46//46
f 26//26 27//27 46//46
f 46//46 27//27 47//47
f 27//27 28//28 47//47
f 47//47 28//28 48//48
f 28//28 29//29 48//48
f 48//48 29//29 49//49
f 29//29 30//30 49//49
f 49//49 30//30 50//50
f 30//30 31//31 50//50
f 50//50 31//31 51//51
f 31//31 32//32 51//51
f 51//51 32//32 52//52
f 32//32 33//33 52//52
f 52//52 33//33 53//53
f 33//33 34//34 53//53
f 53//53 34//34 54//54
f 34//34 35//35 54//54
f 54//54 35//35 55//55
f 35//35 36//36 55//55
f 55//55 36//36 56//56
f 36//36 37//37 56//56
f 56//56 37//37 57//57
f 37//37 38//38 57//57
f 57//57 38//38 58//58
f 38//38 39//39 58//58
f 58//58 39//39 59//59
f 39//39 40//40 59//59
f 59//59 40//40 60//60
f 40//40 21//21 60//60
f 60//60 21//21 41//41
f 41//41 42//42 61//61
f 61//61 42//42 62//62
f 42//42 43//43 62//62
f 62//62 43//43 63//63
f 43//43 44//44 63//63
f 63//63 44//44 64//64
f 44//44 45//45 64//64
f 64//64 45//45 65//65
f 45//45 46//46 65//65
f 65//65 46//46 66//66
f 46//46 47//47 66//66
f 66//66 47//47 67//67
f 47//47 48//48 67//67
f 67//67 48//48 68//68
f 48//48 49//49 68//68
f 68//68 49//49 69//69
f 49//49 50//50 69//69
f 69//69 50//50 70//70
f 50//50 51//51 70//70
f 70//70 51//51 71//71
f 51//51 52//52 71//71
f 71//71 52//52 72//72
f 52//52 53//53 72//72
f 72//72 53//53 73//73
f 53//53 54//54 73//73
f 73//73 54//54 74//74
f 54//54 55//55 74//74
f 74//74 55//55 75//75
f 55//55 56//56 75//75
f 75//75 56//56 76//76
f 56//56 57//57 76//76
f 76//76 57//57 77//77
f 57//57 58//58 77//77
f 77//77 58//58 78//78
f 58//58 59//59 78//78
f 78//78 59//59 79//79
f 59//59 60//60 79//79
f 79//79 60//60 80//80
f 60//60 41//41 80//80
f 80//80 41//41 61//61
f 61//61 62//62 81//81
f 81//81 62//62 82//82
f 62//62 63//63 82//82
f 82//82 63//63 83//83
f 63//63 64//64 83//83
f 83//83 64//64 84//84
f 64//64 65//65 84//84
f 84//84 65//65 85//85
f 65//65 66//66 85//85
f 85//85 66//66 86//86
f 66//66 67//67 86//86
f 86//86 67//67 87//87
f 67//67 68//68 87//87
f 87//87 68//68 88//88
f 68//68 69//69 88//88
f 88//88 69//69 89//89
f 69//69 70//70 89//89
f 89//89 70//70 90//90
f 70//70 71//71 90//90
f 90//90 71//71 91//91
f 71//71 72//72 91//91
f 91//91 72//72 92//92
f 72//72 73//73 92//92
f 92//92 73//73 93//93
f 73//73 74//74 93//93
f 93//93 74//74 94//94
f 74//74 75//75 94//94
f 94//94 75//75 95//95
f 75//75 76//76 95//95
f 95//95 76//76 96//96
f 76//76 77//77 96//96
f 96//96 77//77 97//97
f 77//77 78//78 97//97
f 97//97 78//78 98//98
f 78//78 79//79 98//98
f 98//98 79//79 99//99
f 79//79 80//80 99//99
f 99//99 80//80 100//100
f 80//80 61//61 100//100
f 100//100 61//61 81//81
f 2//2 1//1 101//101
f 3//3 2//2 101//101
f 4//4 3//3 101//101
f 5//5 4//4 101//101
f 6//6 5//5 101//101
f 7//7 6//6 101//101
f 8//8 7//7 101//101
f 9//9 8//8 101//101
f 10//10 9//9 101//101
f 11//11 10//10 101//101
f 12//12 11//11 101//101
f 13//13 12//12 101//101
f 14//14 13//13 101//101
f 15//15 14//14 101//101
f 16//16 15//15 101//101
f 17//17 16//16 101//101
f 18//18 17//17 101//101
f 19//19 18//18 101//101
f 20//20 19//19 101//101
f 1//1 20//20 101//101
f 81//81 82//82 102//102
f 82//82 83//83 102//102
f 83//83 84//84 102//102
f 84//84 85//85 102//102
f 85//85 86//86 102//102
f 86//86 87//87 102//102
f 87//87 88//88 102//102
f 88//88 89//89 102//102
f 89//89 90//90 102//102
f 90//90 91//91 102//102
f 91//91 92//92 102//102
f 92//92 93//93 102//102
f 93//93 94//94 102//102
f 94//94 95//95 102//102
f 95//95 96//96 102//102
f 96//96 97//97 102//102
f 97//97 98//98 102//102
f 98//98 99//99 102//102
f 99//99 100//100 102//102
f 100//100 81//81 102//102
# 200 faces, 0 coords texture

# End of File
